<svg width="155" height="38" viewBox="0 0 155 38" fill="none" xmlns="http://www.w3.org/2000/svg">
<path d="M2.89549 30.5V10.2162H15.6818V14.0738H7.46868V18.7715H14.4996V22.6291H7.46868V30.5H2.89549ZM24.1386 30.8733C22.832 30.8733 21.598 30.5622 20.4365 29.94C19.2958 29.2971 18.3729 28.3741 17.6677 27.1712C16.9626 25.9475 16.61 24.4854 16.61 22.7847C16.61 21.0632 16.9626 19.6011 17.6677 18.3981C18.3729 17.1952 19.2958 16.2826 20.4365 15.6604C21.598 15.0175 22.832 14.696 24.1386 14.696C25.4453 14.696 26.6689 15.0175 27.8096 15.6604C28.9504 16.2826 29.8733 17.1952 30.5785 18.3981C31.2836 19.6011 31.6362 21.0632 31.6362 22.7847C31.6362 24.4854 31.2836 25.9475 30.5785 27.1712C29.8733 28.3741 28.9504 29.2971 27.8096 29.94C26.6689 30.5622 25.4453 30.8733 24.1386 30.8733ZM24.1386 27.1712C25.072 27.1712 25.7771 26.7771 26.2541 25.989C26.7312 25.1802 26.9697 24.112 26.9697 22.7847C26.9697 21.4366 26.7312 20.3684 26.2541 19.5803C25.7771 18.7922 25.072 18.3981 24.1386 18.3981C23.1846 18.3981 22.4691 18.7922 21.992 19.5803C21.5358 20.3684 21.3076 21.4366 21.3076 22.7847C21.3076 24.112 21.5358 25.1802 21.992 25.989C22.4691 26.7771 23.1846 27.1712 24.1386 27.1712ZM40.6173 30.8733C39.3107 30.8733 38.0767 30.5622 36.9152 29.94C35.7745 29.2971 34.8516 28.3741 34.1464 27.1712C33.4412 25.9475 33.0887 24.4854 33.0887 22.7847C33.0887 21.0632 33.4412 19.6011 34.1464 18.3981C34.8516 17.1952 35.7745 16.2826 36.9152 15.6604C38.0767 15.0175 39.3107 14.696 40.6173 14.696C41.924 14.696 43.1476 15.0175 44.2883 15.6604C45.429 16.2826 46.352 17.1952 47.0571 18.3981C47.7623 19.6011 48.1149 21.0632 48.1149 22.7847C48.1149 24.4854 47.7623 25.9475 47.0571 27.1712C46.352 28.3741 45.429 29.2971 44.2883 29.94C43.1476 30.5622 41.924 30.8733 40.6173 30.8733ZM40.6173 27.1712C41.5506 27.1712 42.2558 26.7771 42.7328 25.989C43.2098 25.1802 43.4484 24.112 43.4484 22.7847C43.4484 21.4366 43.2098 20.3684 42.7328 19.5803C42.2558 18.7922 41.5506 18.3981 40.6173 18.3981C39.6633 18.3981 38.9477 18.7922 38.4707 19.5803C38.0144 20.3684 37.7863 21.4366 37.7863 22.7847C37.7863 24.112 38.0144 25.1802 38.4707 25.989C38.9477 26.7771 39.6633 27.1712 40.6173 27.1712ZM55.976 30.8733C54.068 30.8733 52.5332 30.1578 51.3717 28.7267C50.231 27.2749 49.6607 25.2942 49.6607 22.7847C49.6607 21.1047 49.9614 19.6633 50.5629 18.4604C51.1851 17.2367 51.9836 16.3034 52.9584 15.6604C53.9539 15.0175 54.9909 14.696 56.0694 14.696C56.9197 14.696 57.6353 14.8412 58.216 15.1316C58.7967 15.4219 59.3463 15.816 59.8648 16.3138L59.6782 13.9494V8.69175H64.2514V30.5H60.5181L60.207 28.9756H60.0826C59.5433 29.5148 58.9108 29.9711 58.1849 30.3444C57.459 30.697 56.7227 30.8733 55.976 30.8733ZM57.1582 27.1401C57.656 27.1401 58.1019 27.0364 58.496 26.829C58.9108 26.6216 59.3048 26.2586 59.6782 25.7401V19.4248C59.2841 19.0514 58.8589 18.7922 58.4026 18.647C57.9671 18.5018 57.5419 18.4292 57.1271 18.4292C56.4012 18.4292 55.7583 18.7818 55.1983 19.487C54.6383 20.1714 54.3583 21.2499 54.3583 22.7225C54.3583 24.2365 54.5968 25.3564 55.0738 26.0824C55.5716 26.7875 56.2664 27.1401 57.1582 27.1401Z" fill="#F17228"/>
<path d="M69.7032 30.5L65.9388 10.2162H70.6365L72.0364 19.7048C72.1609 20.7625 72.2957 21.8306 72.4409 22.9091C72.5861 23.9669 72.7209 25.035 72.8453 26.1135H72.9697C73.1771 25.035 73.3742 23.9669 73.5608 22.9091C73.7682 21.8306 73.9756 20.7625 74.183 19.7048L76.3608 10.2162H80.2495L82.4272 19.7048C82.6346 20.721 82.8317 21.7684 83.0183 22.8469C83.2257 23.9254 83.4331 25.0142 83.6405 26.1135H83.765C83.9102 25.0142 84.045 23.9357 84.1694 22.878C84.3146 21.7995 84.4598 20.7418 84.605 19.7048L86.0049 10.2162H90.3915L86.7827 30.5H81.0273L79.0362 21.2914C78.8703 20.5033 78.7148 19.7151 78.5696 18.927C78.4451 18.1181 78.3311 17.3404 78.2274 16.5937H78.1029C77.9785 17.3404 77.8437 18.1181 77.6985 18.927C77.5741 19.7151 77.4289 20.5033 77.263 21.2914L75.3652 30.5H69.7032ZM95.5793 30.8733C94.169 30.8733 93.049 30.4274 92.2194 29.5356C91.3898 28.623 90.975 27.5134 90.975 26.2068C90.975 24.5891 91.6594 23.3239 93.0283 22.4113C94.3971 21.4988 96.606 20.8869 99.6548 20.5758C99.6133 19.8914 99.4059 19.3522 99.0326 18.9581C98.68 18.5433 98.0785 18.3359 97.2282 18.3359C96.5852 18.3359 95.9319 18.4604 95.2682 18.7092C94.6045 18.9581 93.8994 19.3003 93.1527 19.7359L91.5039 16.7182C92.4787 16.1167 93.5157 15.6293 94.6149 15.256C95.7349 14.8827 96.8963 14.696 98.0992 14.696C100.07 14.696 101.584 15.2664 102.641 16.4071C103.699 17.5478 104.228 19.3003 104.228 21.6647V30.5H100.495L100.184 28.9134H100.059C99.4162 29.4941 98.7214 29.9711 97.9748 30.3444C97.2489 30.697 96.4504 30.8733 95.5793 30.8733ZM97.1348 27.3268C97.6533 27.3268 98.0992 27.2127 98.4726 26.9845C98.8666 26.7357 99.2607 26.4142 99.6548 26.0201V23.3135C98.037 23.5209 96.9171 23.8528 96.2949 24.3091C95.6726 24.7446 95.3615 25.2631 95.3615 25.8646C95.3615 26.3623 95.5171 26.7357 95.8282 26.9845C96.16 27.2127 96.5956 27.3268 97.1348 27.3268ZM112.825 37.0643C111.622 37.0643 110.533 36.9294 109.558 36.6598C108.584 36.3902 107.806 35.965 107.225 35.3843C106.645 34.8036 106.354 34.0569 106.354 33.1444C106.354 31.9 107.09 30.863 108.563 30.0333V29.9089C108.169 29.6393 107.827 29.2971 107.536 28.8823C107.267 28.4675 107.132 27.9386 107.132 27.2956C107.132 26.7357 107.298 26.1964 107.63 25.6779C107.962 25.1594 108.376 24.7342 108.874 24.4024V24.278C108.335 23.9046 107.847 23.3654 107.412 22.6602C106.997 21.9551 106.79 21.1566 106.79 20.2647C106.79 19.0203 107.09 17.9937 107.692 17.1848C108.293 16.3552 109.081 15.733 110.056 15.3182C111.031 14.9034 112.068 14.696 113.167 14.696C114.08 14.696 114.878 14.8205 115.563 15.0693H121.194V18.3981H118.736C118.881 18.6263 118.995 18.9166 119.078 19.2692C119.182 19.6218 119.234 20.0055 119.234 20.4203C119.234 21.6025 118.964 22.5773 118.425 23.3447C117.886 24.112 117.16 24.6824 116.247 25.0557C115.335 25.429 114.308 25.6157 113.167 25.6157C112.566 25.6157 111.944 25.512 111.301 25.3046C110.927 25.6157 110.741 25.9994 110.741 26.4557C110.741 26.8497 110.917 27.1401 111.27 27.3268C111.622 27.5134 112.224 27.6068 113.074 27.6068H115.563C117.471 27.6068 118.923 27.9179 119.918 28.5401C120.934 29.1415 121.443 30.137 121.443 31.5266C121.443 32.5844 121.09 33.5281 120.385 34.3577C119.68 35.208 118.684 35.8717 117.398 36.3487C116.112 36.8257 114.588 37.0643 112.825 37.0643ZM113.167 22.8469C113.769 22.8469 114.267 22.6291 114.661 22.1936C115.075 21.758 115.283 21.1151 115.283 20.2647C115.283 19.4559 115.075 18.844 114.661 18.4292C114.267 17.9937 113.769 17.7759 113.167 17.7759C112.566 17.7759 112.058 17.9833 111.643 18.3981C111.249 18.8129 111.052 19.4351 111.052 20.2647C111.052 21.1151 111.249 21.758 111.643 22.1936C112.058 22.6291 112.566 22.8469 113.167 22.8469ZM113.541 34.2021C114.578 34.2021 115.428 34.0155 116.092 33.6421C116.755 33.2688 117.087 32.8229 117.087 32.3044C117.087 31.8274 116.88 31.5059 116.465 31.34C116.071 31.1741 115.49 31.0911 114.723 31.0911H113.136C112.618 31.0911 112.182 31.0704 111.83 31.0289C111.498 31.0081 111.207 30.9667 110.958 30.9044C110.398 31.4022 110.118 31.9103 110.118 32.4288C110.118 33.0096 110.43 33.4451 111.052 33.7355C111.695 34.0466 112.524 34.2021 113.541 34.2021ZM129.519 30.8733C128.046 30.8733 126.719 30.5519 125.537 29.9089C124.355 29.266 123.421 28.343 122.737 27.1401C122.052 25.9372 121.71 24.4854 121.71 22.7847C121.71 21.1047 122.052 19.6633 122.737 18.4604C123.442 17.2574 124.355 16.3345 125.475 15.6915C126.594 15.0279 127.766 14.696 128.99 14.696C130.463 14.696 131.676 15.0279 132.63 15.6915C133.605 16.3345 134.331 17.2159 134.808 18.3359C135.305 19.4351 135.554 20.6899 135.554 22.1002C135.554 22.4943 135.533 22.8884 135.492 23.2824C135.451 23.6558 135.409 23.9357 135.368 24.1224H126.128C126.335 25.2424 126.802 26.072 127.528 26.6112C128.254 27.1297 129.125 27.389 130.141 27.389C131.24 27.389 132.35 27.0468 133.47 26.3623L134.994 29.1312C134.206 29.6704 133.325 30.0956 132.35 30.4067C131.375 30.7178 130.431 30.8733 129.519 30.8733ZM126.097 21.1047H131.665C131.665 20.2544 131.458 19.5596 131.043 19.0203C130.649 18.4604 129.996 18.1804 129.083 18.1804C128.378 18.1804 127.746 18.4292 127.186 18.927C126.626 19.404 126.263 20.1299 126.097 21.1047ZM137.937 30.5V15.0693H141.67L141.981 17.0293H142.105C142.769 16.4071 143.495 15.8678 144.283 15.4116C145.092 14.9345 146.015 14.696 147.052 14.696C148.732 14.696 149.945 15.256 150.692 16.376C151.459 17.4752 151.843 18.9892 151.843 20.9181V30.5H147.27V21.5092C147.27 20.3892 147.114 19.6218 146.803 19.207C146.513 18.7922 146.036 18.5848 145.372 18.5848C144.791 18.5848 144.293 18.7196 143.879 18.9892C143.464 19.2381 143.008 19.6011 142.51 20.0781V30.5H137.937Z" fill="#FFB30E"/>
</svg>
