<svg width="18" height="19" viewBox="0 0 18 19" fill="none" xmlns="http://www.w3.org/2000/svg">
<g clip-path="url(#clip0_6_1210)">
<path d="M17.7801 17.662L13.3033 13.1853C14.5233 11.6932 15.1231 9.78932 14.9787 7.86742C14.8343 5.94552 13.9567 4.15265 12.5275 2.85964C11.0983 1.56663 9.22678 0.872419 7.30007 0.920593C5.37336 0.968767 3.53886 1.75564 2.17605 3.11846C0.813229 4.48128 0.0263534 6.31577 -0.0218205 8.24248C-0.0699943 10.1692 0.624219 12.0407 1.91723 13.4699C3.21023 14.8992 5.00311 15.7767 6.92501 15.9211C8.84691 16.0655 10.7508 15.4657 12.2428 14.2458L16.7196 18.7225C16.861 18.8591 17.0505 18.9347 17.2471 18.933C17.4438 18.9313 17.6319 18.8524 17.771 18.7134C17.91 18.5743 17.9889 18.3862 17.9906 18.1896C17.9923 17.9929 17.9167 17.8035 17.7801 17.662ZM7.49984 14.4423C6.31315 14.4423 5.15311 14.0904 4.16642 13.4311C3.17972 12.7718 2.41069 11.8347 1.95656 10.7384C1.50243 9.64199 1.38361 8.43559 1.61512 7.27171C1.84664 6.10782 2.41808 5.03872 3.2572 4.19961C4.09631 3.36049 5.16541 2.78905 6.3293 2.55754C7.49318 2.32603 8.69958 2.44485 9.79594 2.89897C10.8923 3.3531 11.8294 4.12213 12.4887 5.10883C13.1479 6.09552 13.4998 7.25556 13.4998 8.44225C13.4981 10.033 12.8653 11.5581 11.7405 12.6829C10.6157 13.8077 9.09059 14.4405 7.49984 14.4423Z" fill="#F17228"/>
</g>
<defs>
<clipPath id="clip0_6_1210">
<rect width="18" height="18" fill="white" transform="translate(0 0.941711)"/>
</clipPath>
</defs>
</svg>
